<?xml version="1.0" encoding="utf-8"?>
<!-- Generator: Adobe Illustrator 27.7.0, SVG Export Plug-In . SVG Version: 6.00 Build 0)  -->
<svg version="1.1" id="Layer_1" xmlns="http://www.w3.org/2000/svg" xmlns:xlink="http://www.w3.org/1999/xlink" x="0px" y="0px"
	 viewBox="0 0 24 24" style="enable-background:new 0 0 24 24;" xml:space="preserve">
<style type="text/css">
	.st0{fill:#00693D;}
</style>
<path class="st0" d="M6,17.3c0.9-0.6,1.8-1.1,2.8-1.5c1-0.4,2.1-0.5,3.2-0.5s2.2,0.2,3.2,0.5c1,0.4,1.9,0.9,2.8,1.5
	c0.6-0.7,1.1-1.5,1.5-2.4C19.8,14,20,13,20,12c0-2.2-0.8-4.1-2.3-5.7S14.2,4,12,4S7.9,4.8,6.3,6.3S4,9.8,4,12c0,1,0.2,2,0.5,2.9
	C4.9,15.8,5.4,16.6,6,17.3z M12,12.7c-0.9,0-1.7-0.3-2.3-0.9c-0.6-0.6-0.9-1.4-0.9-2.3c0-0.9,0.3-1.7,0.9-2.3
	c0.6-0.6,1.4-0.9,2.3-0.9c0.9,0,1.7,0.3,2.3,0.9c0.6,0.6,0.9,1.4,0.9,2.3c0,0.9-0.3,1.7-0.9,2.3C13.7,12.4,12.9,12.7,12,12.7z
	 M12,21.5c-1.3,0-2.6-0.2-3.7-0.7c-1.2-0.5-2.2-1.2-3-2c-0.9-0.9-1.5-1.9-2-3c-0.5-1.2-0.7-2.4-0.7-3.7s0.2-2.6,0.7-3.7
	c0.5-1.2,1.2-2.2,2-3c0.9-0.9,1.9-1.5,3-2c1.2-0.5,2.4-0.7,3.7-0.7s2.6,0.2,3.7,0.7c1.2,0.5,2.2,1.2,3,2c0.9,0.9,1.5,1.9,2,3
	c0.5,1.2,0.7,2.4,0.7,3.7s-0.2,2.6-0.7,3.7c-0.5,1.2-1.2,2.2-2,3c-0.9,0.9-1.9,1.5-3,2C14.6,21.3,13.3,21.5,12,21.5z M12,20
	c0.9,0,1.8-0.1,2.6-0.4c0.8-0.3,1.6-0.7,2.2-1.2c-0.6-0.5-1.4-0.9-2.2-1.2c-0.8-0.3-1.7-0.4-2.6-0.4c-0.9,0-1.8,0.1-2.6,0.4
	s-1.6,0.7-2.2,1.2c0.7,0.5,1.4,0.9,2.2,1.2C10.2,19.9,11.1,20,12,20z M12,11.3c0.5,0,0.9-0.2,1.2-0.5c0.3-0.3,0.5-0.8,0.5-1.2
	s-0.2-0.9-0.5-1.2c-0.3-0.3-0.8-0.5-1.2-0.5s-0.9,0.2-1.2,0.5c-0.3,0.3-0.5,0.8-0.5,1.2s0.2,0.9,0.5,1.2
	C11.1,11.1,11.5,11.3,12,11.3z"/>
</svg>
